# xmcd CD database file
# Copyright (C) 1996 Ti Kan
#
# Track frame offsets:
#  190
#  16142
#  29570
#  43442
#  56032
#  69452
#  83865
#  95075
#  110790
#  125890
#  140265
#  151197
#  166542
#  179442
#  195360
#  207360
#  218920
#  230690
#  244070
#  256957
#  269467
#  283295
#  296020
#
# Disc length: 4199 seconds
#
# Revision: 2
# Processed by: cddbd v1.4b41PL1 Copyright (c) Steve Scherf et al.
# Submitted via: CDWizzard Release:4.12
#
DISCID=65106517
DTITLE=Juke Boy Bonner - Life Gave Me A Dirty Deal
DYEAR=1900
DGENRE=
TTITLE0=Life Gave Me A Dirty Deal
TTITLE1=Going Back To The Country
TTITLE2=Sad, Sad Sound
TTITLE3=She Turns Me On
TTITLE4=Hard Luck
TTITLE5=Trying To Be Contented
TTITLE6=Life Is A Nightmare
TTITLE7=It's Time to Make A Change
TTITLE8=Stay Off Lyons Avenue
TTITLE9=My Blues
TTITLE10=I'm Getting Tired
TTITLE11=Over Ten Years Ago
TTITLE12=I Got My Passport
TTITLE13=I'm In The Big City
TTITLE14=Houston, The Action Town
TTITLE15=Running Shoes
TTITLE16=Just A Blues
TTITLE17=It Don't Take Too Much
TTITLE18=Struggle Here In Houston
TTITLE19=Railroad Tracks
TTITLE20=Watch Your Buddies
TTITLE21=When The Deal Goes Down
TTITLE22=Being Black And I'm Proud
EXTD=Arhoolie CD 375\n\nWeldon "Juke boy" Bonner:  vocals, guitar and har
EXTD=monica\nAlvin J. Simon:  drums\n\nProduced by Chris Strachwitz
EXTT0=
EXTT1=
EXTT2=
EXTT3=
EXTT4=
EXTT5=
EXTT6=
EXTT7=
EXTT8=
EXTT9=
EXTT10=
EXTT11=
EXTT12=
EXTT13=
EXTT14=
EXTT15=
EXTT16=
EXTT17=
EXTT18=
EXTT19=
EXTT20=
EXTT21=
EXTT22=
PLAYORDER=
